<svg xmlns="http://www.w3.org/2000/svg" viewBox="0 0 66 70" x="0px" y="0px"><title>Artboard 23</title><path d="M55.72,33.07c2.86-7.41,1.35-17.66,1.27-18.22a1,1,0,0,0-1.85-.36c-2.49,4.16-4.86,5.32-9.59,7.63l-2,1-.22.11a22.1,22.1,0,0,0-4.83,3,1.37,1.37,0,0,0-.22.19A7.46,7.46,0,0,0,36,34.24a9.08,9.08,0,0,0,2.55,4.17,6.5,6.5,0,0,1-1,.7c-2.1,1-3.19.84-3.55.55V25.94a7.34,7.34,0,0,0,5.89-3.4,9.47,9.47,0,0,0,1.29-4.3s0,0,0,0a13.41,13.41,0,0,0-1.29-6.67,18.89,18.89,0,0,0-2.21-3.4h0a32.43,32.43,0,0,0-8.17-7,1,1,0,0,0-1.07.05,1,1,0,0,0-.42,1c0,.06.91,5.69-1.87,10.33-.09.15-.16.31-.25.47s0,0-.06.07,0,.06,0,.09a11.4,11.4,0,0,0-1.34,5,.92.92,0,0,0,0,.33,8,8,0,0,0,1,3.84c.89,1.56,2.76,3.39,6.58,3.67V46.65c-.4.31-1.49.49-3.55-.54a6.5,6.5,0,0,1-1-.7A9.08,9.08,0,0,0,30,41.24a7.46,7.46,0,0,0-2.25-7.85,1.37,1.37,0,0,0-.22-.19,22.1,22.1,0,0,0-4.83-3l-.22-.11-2-1c-4.73-2.31-7.1-3.47-9.59-7.63A1,1,0,0,0,9,21.85c-.08.56-1.59,10.81,1.27,18.22v0l0,0a12.13,12.13,0,0,0,4.12,5.69h0a11.06,11.06,0,0,0,6.45,2.27,9.3,9.3,0,0,0,3.16-.56,10.47,10.47,0,0,0,1.74-.87,9.58,9.58,0,0,0,1.76,1.22,8,8,0,0,0,3.52,1,3.94,3.94,0,0,0,.93-.12v3.28A12,12,0,0,0,21,64a1,1,0,0,0,1,1H44a1,1,0,0,0,1-1,12,12,0,0,0-11-12v-5h0V41.77a3.94,3.94,0,0,0,.93.12,8,8,0,0,0,3.52-1,9.58,9.58,0,0,0,1.76-1.22,10.47,10.47,0,0,0,1.74.87,9.3,9.3,0,0,0,3.16.56,11.06,11.06,0,0,0,6.45-2.27h0a12.13,12.13,0,0,0,4.12-5.69l0,0ZM28,40.76a7.19,7.19,0,0,1-2.12,3.34c-.6-.57-1.23-1.21-1.89-1.91l3.18-6.46A5.51,5.51,0,0,1,28,40.76Zm-8.15-3.29v0l2.56-5.11a23.15,23.15,0,0,1,3.23,1.94L22.57,40.6C21.66,39.58,20.75,38.51,19.88,37.47ZM11,34.82l3.61-.72c.44.58,1.18,1.52,2.1,2.66l-4.86,1.72A22.94,22.94,0,0,1,11,34.82Zm9.68-3.37-2.17,4.34c-.93-1.14-1.74-2.16-2.36-3l1.13-3.06c.72.37,1.48.74,2.31,1.15Zm-9.95-6.66a16.37,16.37,0,0,0,4.78,4l-1.23,3.33-3.52.7A47.94,47.94,0,0,1,10.71,24.79Zm1.85,15.55L18,38.4c.88,1.07,1.85,2.21,2.84,3.33l-5.69,2.13A9.85,9.85,0,0,1,12.56,40.34Zm10.8,5.32a7.58,7.58,0,0,1-6.07-.45l5-1.89c.65.69,1.29,1.35,1.91,2A7.81,7.81,0,0,1,23.36,45.66Zm3.82-30.78L32,17.44v2.95l-5.53-2.72A9.4,9.4,0,0,1,27.18,14.88Zm2-4.23L32,12.4v2.77l-3.92-2.08A14.6,14.6,0,0,0,29.17,10.65Zm10,7L34,20.36V17.41l4.85-2.9A11.55,11.55,0,0,1,39.19,17.68ZM34,23.94V22.61l4.78-2.46a6.2,6.2,0,0,1-.59,1.34A5.34,5.34,0,0,1,34,23.94Zm4.17-11.35L34,15.08V12.33l2.7-2.14a16.43,16.43,0,0,1,1.41,2.26A1.47,1.47,0,0,0,38.17,12.59Zm-2.71-4-2.53,2-3.21-2a20.23,20.23,0,0,0,.44-4.7A31.08,31.08,0,0,1,35.46,8.62Zm-8.3,12.66A5.07,5.07,0,0,1,26.67,20L32,22.62V24A5.77,5.77,0,0,1,27.16,21.28ZM43,63H23.05A10,10,0,0,1,43,63Zm.48-29.4-3.11-6.32a23.15,23.15,0,0,1,3.23-1.94l2.56,5.11s0,0,0,0C45.25,31.51,44.34,32.58,43.43,33.6Zm8-6.5,3.61.72a22.94,22.94,0,0,1-.85,3.66l-4.86-1.72C50.23,28.62,51,27.68,51.41,27.1Zm3.88-9.31a47.94,47.94,0,0,1,0,8l-3.52-.7L50.51,21.8A16.37,16.37,0,0,0,55.29,17.79Zm-8.86,6.13c.83-.41,1.59-.78,2.31-1.15l1.13,3.06c-.62.8-1.43,1.82-2.36,3l-2.17-4.34ZM38,33.76a5.51,5.51,0,0,1,.83-5L42,35.19c-.66.7-1.29,1.34-1.89,1.91A7.19,7.19,0,0,1,38,33.76Zm4.67,4.9a7.81,7.81,0,0,1-.88-.39c.62-.6,1.26-1.26,1.91-2l5,1.89A7.58,7.58,0,0,1,42.64,38.66Zm8.17-1.8-5.69-2.13c1-1.12,2-2.26,2.84-3.33l5.48,1.94A9.85,9.85,0,0,1,50.81,36.86Z"/></svg>