<svg xmlns="http://www.w3.org/2000/svg" xmlns:xlink="http://www.w3.org/1999/xlink" version="1.1" x="0px" y="0px" viewBox="0 0 512 545" style="enable-background:new 0 0 512 512;" xml:space="preserve">
<g>
<path d="M338.734,458.878h-66.581c-14.463-30.316-42.597-50.215-74.089-52.544c-0.747-5.587-1.416-10.582-2.012-14.988   c0.626-8.693,3.495-15.727,6.005-20.06c2.642,0.256,6.194,0.496,10.463,0.496c13.829,0,34.742-2.468,53.241-14.664   c30.277-19.954,39.598-57.999,39.988-59.596c0.462-1.953,0.089-4.012-1.012-5.699c-1.101-1.669-2.858-2.805-4.829-3.16   c-1.633-0.266-40.246-6.693-70.532,13.279c-27.997,18.475-36.394,52.169-37.817,58.812c-0.028,0.041-0.059,0.094-0.087,0.135   c-1.244-6.299-2.339-9.202-4.197-13.766c-0.424-1.061-1.012-2.581-1.552-3.964c1.083-6.57,5.416-39.506-11.611-66.514   c-18.578-29.443-54.883-39.136-56.427-39.536c-1.926-0.533-4.003-0.178-5.699,0.888c-1.695,1.074-2.876,2.796-3.258,4.767   c-0.302,1.553-7.208,38.497,11.362,67.949c0,0,0,0,0,0.018c15.244,24.167,42.146,34.889,52.263,38.231   c0.533,1.358,1.026,2.589,1.457,3.648c2.693,6.615,3.381,8.363,6.955,34.305c-2.473-1.794-4.949-3.409-7.36-4.904   c-3.6-7.959-16.87-33.754-41.305-41.988c-28.36-9.551-59.277,8.965-60.582,9.746c-3.009,1.846-4.27,5.574-2.982,8.876   c0.559,1.402,13.963,34.831,42.349,44.4c5.796,1.953,11.699,2.734,17.433,2.734c16.793,0,32.127-6.696,39.151-10.288   c4.85,3.047,9.235,6.253,12.852,11.275c-29.277,4.106-54.979,23.554-68.604,52.111H45.128c-4.012,0-7.27,3.267-7.27,7.279   c0,4.012,3.258,7.279,7.27,7.279h293.605c4.012,0,7.279-3.267,7.279-7.279C346.012,462.144,342.746,458.878,338.734,458.878z    M115.527,389.269c-15.694-5.29-26.008-21.303-30.641-30.056c8.983-4.19,26.887-10.687,42.58-5.415   c15.694,5.29,26.008,21.303,30.641,30.056C149.115,388.044,131.212,394.506,115.527,389.269z M237.383,314.086   c17.753-11.699,39.962-12.498,51.643-11.877c-4.065,11.078-13.457,31.032-31.272,42.767   c-17.735,11.699-38.879,12.658-50.152,12.107C211.073,346.058,219.532,325.856,237.383,314.086z M132.392,302.955v0.018   c-10.661-16.918-11.104-37.68-10.341-49.033c10.563,4.172,29.053,13.492,39.757,30.482c10.661,16.883,11.113,37.636,10.35,48.998   C161.578,329.211,143.044,319.855,132.392,302.955z M191.935,420.407c26.102,0,50.205,14.794,63.992,38.47H127.943   C141.731,435.207,165.831,420.407,191.935,420.407z"/><path d="M473.744,179.546c-1.225-6.675-5.219-12.578-10.971-16.191l-6.156-3.868c-25.086-78.009-52.082-118.73-80.283-120.757   c-13.155-0.976-23.949,2.379-31.849,9.924c-8.764,8.384-12.237,20.552-13.43,31.944l-13.385-8.409L306.477,50.03   c-1.136-2.246-3.338-3.746-5.841-3.968c-2.752-0.24-4.953,0.861-6.462,2.858l-83.057,109.89c-1.509,2.006-1.882,4.642-0.985,6.986   c0.897,2.343,2.938,4.057,5.406,4.536l26.363,5.113c0.054,0.01,0.108,0.007,0.162,0.016l36.595,32.791l-28.706,3.108   l-26.674-11.078c-0.048-0.019-0.097-0.009-0.144-0.028c-0.332-0.114-0.688-0.135-1.04-0.202c-0.829-0.188-1.633-0.261-2.445-0.164   l-22.849,2.089c-1.979,0.186-3.799,1.163-5.033,2.725c-1.234,1.553-1.775,3.551-1.5,5.521l7.021,50.471   c0.497,3.622,3.604,6.267,7.19,6.267c0.222,0,0.444-0.009,0.675-0.027l23.292-2.13c0.051-0.004,0.093-0.038,0.143-0.043   c0.828-0.09,1.608-0.34,2.381-0.721c0.141-0.069,0.277-0.123,0.413-0.201c0.27-0.155,0.573-0.207,0.827-0.402l20.993-16.031   l104.397,31.58l10.642,9.535c4.474,4.012,10.297,6.214,16.244,6.214c0.763,0,1.544-0.036,2.308-0.124   c6.764-0.639,12.977-4.119,17.078-9.533l65.366-86.492C473.336,193.162,474.969,186.23,473.744,179.546z M354.534,59.164   c4.864-4.642,11.699-6.586,20.771-5.929c19.032,1.373,41.195,35.477,61.814,94.002l-10.454-6.569   c-6.658-22.402-23.429-69.48-47.33-71.03c-9.498-0.657-14.841,3.142-17.913,6.373c-4.734,5.001-6.51,12.105-7.038,19.244   l-9.304-5.845C345.204,78.889,347.022,66.351,354.534,59.164z M368.897,104.374c-0.695-8.658,0.353-15.48,3.088-18.368   c0.87-0.914,2.61-1.997,6.391-1.864c7.098,0.467,18.523,15.854,28.925,44.36L368.897,104.374z M298.754,66.993l4.792,9.513   l-63.335,83.803l-10.453-2.032L298.754,66.993z M210.736,251.818l-5.015-36.047l8.788-0.808l5.015,36.047L210.736,251.818z    M253.848,232.414c-2.246-0.692-4.669-0.231-6.515,1.181l-14.057,10.733l-3.565-25.622l16.388,6.803   c0.888,0.364,1.829,0.55,2.787,0.55c0.257,0,0.524-0.009,0.781-0.044l43.548-4.718l38.772,34.742L253.848,232.414z    M457.624,189.816l-65.366,86.492c-1.669,2.201-4.101,3.568-6.853,3.835s-5.397-0.604-7.456-2.45l-12.042-10.79   c-0.008-0.007-0.014-0.013-0.021-0.019l-65.674-58.847c-0.026-0.02-0.048-0.042-0.072-0.063l-46.335-41.518l60.065-79.476   l141.163,88.698c2.343,1.473,3.906,3.781,4.42,6.498C459.95,184.889,459.293,187.605,457.624,189.816z"/><path d="M171.555,238.121c1.402,0,2.823-0.399,4.065-1.252l8.273-5.601c3.329-2.246,4.199-6.773,1.944-10.092   c-2.246-3.338-6.79-4.225-10.092-1.944l-8.273,5.601c-3.329,2.246-4.199,6.773-1.944,10.092   C166.93,237.003,169.221,238.121,171.555,238.121z"/><path d="M178.061,247.104l-8.282,5.592c-3.329,2.246-4.207,6.764-1.962,10.092c1.402,2.086,3.701,3.204,6.036,3.204   c1.394,0,2.814-0.399,4.057-1.243l8.282-5.592c3.329-2.246,4.207-6.764,1.962-10.092   C185.917,245.728,181.381,244.85,178.061,247.104z"/><path d="M183.281,286.249c1.402,2.077,3.693,3.196,6.027,3.196c1.402,0,2.823-0.408,4.065-1.26l8.282-5.61   c3.329-2.255,4.199-6.764,1.944-10.092c-2.246-3.338-6.79-4.225-10.092-1.944l-8.282,5.61   C181.896,278.402,181.026,282.912,183.281,286.249z"/>
</g>
</svg>