<svg xmlns="http://www.w3.org/2000/svg" data-name="Layer 1" viewBox="0 0 100 107" x="0px" y="0px">
<title>112all</title>
<path d="M78.57,27.3H67.34V17a13,13,0,0,0-13-13H27.43a13,13,0,0,0-13,13V83a13,13,0,0,0,13,13H54.34a13,13,0,0,0,13-13V62.63H78.57a7,7,0,0,0,7-7V34.3A7,7,0,0,0,78.57,27.3ZM27.43,10H54.34a7,7,0,0,1,7,6.73H20.44A7,7,0,0,1,27.43,10ZM54.34,90H27.43a7,7,0,0,1-7-7V76H61.34v7A7,7,0,0,1,54.34,90Zm7-20H20.43V22.73H61.34V27.3H44.19a7,7,0,0,0-7,7V55.63a7,7,0,0,0,7,7h1.58l6.16,5.28A3,3,0,0,0,56,67.75l5.12-5.12h.21ZM79.57,55.63a1,1,0,0,1-1,1H59.88a3,3,0,0,0-2.12.88l-4,4-4.89-4.19a3,3,0,0,0-2-.72H44.19a1,1,0,0,1-1-1V34.3a1,1,0,0,1,1-1H78.57a1,1,0,0,1,1,1Z"/><path d="M47.34,80H34.43a3,3,0,0,0,0,6H47.34a3,3,0,1,0,0-6Z"/><path d="M68.77,47.24V44.69a7.59,7.59,0,0,0-4.92-7.11v-.51a2.59,2.59,0,0,0-5.18,0v.51a7.59,7.59,0,0,0-4.92,7.11v2.55a3,3,0,0,0,.65,5.88h3.89a3,3,0,0,0,5.94,0h3.89a3,3,0,0,0,.65-5.88Z"/>
</svg>